<?xml version="1.0" standalone="no"?>
<!DOCTYPE svg PUBLIC "-//W3C//DTD SVG 20010904//EN"
 "http://www.w3.org/TR/2001/REC-SVG-20010904/DTD/svg10.dtd">
<svg version="1.0" xmlns="http://www.w3.org/2000/svg"
 width="200.000000pt" height="200.000000pt" viewBox="0 0 200.000000 200.000000"
 preserveAspectRatio="xMidYMid meet">
<metadata>
Created by potrace 1.11, written by Peter Selinger 2001-2013
</metadata>
<g transform="translate(0.000000,200.000000) scale(0.100000,-0.100000)"
fill="#000000" stroke="none">
<path d="M543 1898 c-27 -30 -37 -98 -21 -151 15 -52 63 -104 106 -116 29 -9
37 -6 63 17 26 23 30 34 30 77 0 28 -2 57 -4 65 -5 29 -46 90 -64 97 -10 4
-20 10 -23 14 -3 3 -19 9 -35 13 -25 5 -35 2 -52 -16z"/>
<path d="M360 1769 c-45 -83 34 -214 116 -193 23 6 35 29 38 78 7 87 -119 181
-154 115z"/>
<path d="M1512 1693 c-52 -29 -94 -75 -149 -164 -29 -46 -65 -98 -80 -115 -15
-17 -49 -59 -75 -93 -37 -47 -54 -61 -74 -61 l-26 0 8 83 c17 172 -2 245 -68
261 -31 8 -41 6 -59 -10 -32 -29 -41 -60 -28 -106 24 -92 13 -179 -42 -328
-13 -33 -23 -91 -26 -146 -5 -77 -2 -102 17 -160 35 -107 68 -163 129 -224 60
-60 128 -90 201 -90 48 0 133 44 220 114 104 83 138 99 232 110 58 6 181 42
230 67 40 20 58 45 58 78 0 39 -30 42 -130 15 -123 -32 -205 -34 -234 -5 -21
22 -21 22 -2 37 11 7 45 23 75 35 133 49 292 140 305 174 9 24 -11 65 -36 74
-29 11 -51 4 -173 -54 -55 -26 -142 -61 -193 -78 -159 -52 -148 -15 51 180
130 127 210 222 219 261 7 26 -18 59 -48 64 -33 5 -88 -40 -252 -206 -186
-189 -225 -221 -241 -202 -9 10 12 46 95 162 59 82 126 174 150 205 52 67 62
100 39 123 -21 21 -52 20 -93 -1z"/>
<path d="M227 1680 c-27 -39 -4 -121 42 -145 40 -20 58 -19 71 4 20 39 4 131
-21 116 -5 -4 -9 1 -9 10 0 8 -12 20 -26 25 -35 14 -41 13 -57 -10z"/>
<path d="M112 1584 c-30 -32 5 -126 52 -138 50 -12 70 17 54 77 -6 26 -40 66
-57 68 -3 0 -13 2 -21 4 -8 1 -21 -3 -28 -11z"/>
<path d="M677 1563 c-1 -1 -14 -4 -27 -7 -89 -18 -151 -35 -190 -53 -89 -39
-144 -70 -171 -96 -16 -15 -29 -24 -29 -20 0 13 -75 -73 -87 -99 -13 -29 -8
-137 7 -152 5 -5 10 -15 10 -22 0 -21 87 -154 95 -146 5 4 5 1 1 -6 -5 -8 3
-27 19 -48 33 -43 80 -146 90 -199 5 -22 10 -47 11 -55 2 -8 6 -57 10 -109 7
-108 48 -243 91 -300 41 -55 97 -111 111 -111 6 0 12 -4 12 -8 0 -8 60 -41 90
-50 8 -2 41 -4 72 -3 157 2 262 183 218 376 -13 56 -74 187 -96 205 -8 7 -14
17 -14 22 0 9 -51 78 -92 127 -6 7 -26 43 -44 78 -33 66 -34 77 -17 168 4 22
6 43 5 48 -1 4 2 7 8 7 5 0 10 5 10 11 0 6 13 39 29 74 16 35 34 81 40 102 14
48 14 173 1 173 -5 0 -10 6 -10 14 0 19 -59 78 -71 70 -5 -3 -9 -1 -9 4 0 8
-66 13 -73 5z m-147 -79 c0 -8 -19 -13 -24 -6 -3 5 1 9 9 9 8 0 15 -2 15 -3z
m-3 -79 c0 -8 -4 -12 -9 -9 -5 3 -6 10 -3 15 9 13 12 11 12 -6z m78 -324 c3
-5 2 -12 -3 -15 -5 -3 -9 1 -9 9 0 17 3 19 12 6z m9 -79 c3 -5 -1 -9 -9 -9 -8
0 -12 4 -9 9 3 4 7 8 9 8 2 0 6 -4 9 -8z m-169 -241 c3 -5 2 -12 -3 -15 -5 -3
-9 1 -9 9 0 17 3 19 12 6z m85 3 c0 -8 -19 -13 -24 -6 -3 5 1 9 9 9 8 0 15 -2
15 -3z m80 -78 c0 -3 -4 -8 -10 -11 -5 -3 -10 -1 -10 4 0 6 5 11 10 11 6 0 10
-2 10 -4z m80 -166 c0 -5 -5 -10 -11 -10 -5 0 -7 5 -4 10 3 6 8 10 11 10 2 0
4 -4 4 -10z"/>
<path d="M10 1480 c-22 -41 7 -113 51 -129 40 -14 59 3 59 51 0 73 -82 131
-110 78z"/>
</g>
</svg>
